<svg version="1.1" id="Layer_1" xmlns="http://www.w3.org/2000/svg" xmlns:xlink="http://www.w3.org/1999/xlink" x="0px" y="0px"
	 width="100%" viewBox="0 0 65 65" enable-background="new 0 0 65 65" xml:space="preserve">
<path fill="#000000" opacity="1.000000" stroke="none" 
	d="
M66.000000,23.999840 
	C66.000000,38.333229 66.000000,52.166561 66.000000,65.999924 
	C44.333370,65.999947 22.666744,65.999947 1.000087,65.999969 
	C1.000058,44.333374 1.000058,22.666750 1.000029,1.000093 
	C22.666624,1.000062 44.333248,1.000062 65.999939,1.000031 
	C66.000000,8.499928 66.000000,15.999856 66.000000,23.999840 
M44.965786,26.132507 
	C44.965786,24.229391 44.965786,22.326275 44.965786,20.451466 
	C42.398384,20.227552 40.198410,20.035685 37.998932,18.976120 
	C37.999645,8.232648 35.211411,4.743497 26.102253,5.034679 
	C21.274643,4.905380 15.853631,4.017432 13.800376,9.931540 
	C12.726418,13.024919 13.110415,16.624468 11.974647,19.999317 
	C10.174883,19.999317 8.375119,19.999317 5.557243,19.999317 
	C4.927722,33.741722 4.310491,47.215816 3.686563,60.836117 
	C12.470114,60.836117 20.242538,60.836117 28.942265,60.979050 
	C37.622215,60.929993 46.302162,60.880939 55.674713,60.963428 
	C57.960445,60.706898 60.246178,60.450367 62.842495,60.158978 
	C62.842495,59.487370 62.842495,58.240105 62.976891,56.093124 
	C62.645386,50.269314 62.550510,44.416416 61.840424,38.639137 
	C61.622993,36.870132 62.083328,33.196438 57.339966,34.032436 
	C56.890980,34.078266 56.441990,34.124092 55.249020,34.025562 
	C54.495831,34.073132 53.742638,34.120701 52.130470,34.023518 
	C50.101822,33.969978 48.073174,33.916439 46.011372,33.072113 
	C45.618809,31.047787 45.226242,29.023462 44.965786,26.132507 
z"/>
<path fill="#EB423F" opacity="1.000000" stroke="none" 
	d="
M28.014961,60.836117 
	C20.242538,60.836117 12.470114,60.836117 3.686563,60.836117 
	C4.310491,47.215816 4.927722,33.741722 5.557243,19.999317 
	C8.375119,19.999317 10.174883,19.999317 12.473604,20.423222 
	C13.242435,22.332891 13.512311,23.818655 14.019686,26.611940 
	C14.973032,23.350870 15.486083,21.595900 16.349468,19.907278 
	C17.412134,19.980793 18.124464,19.987959 18.994526,20.279194 
	C20.101236,20.322346 21.050217,20.081429 22.423447,19.906397 
	C24.843727,19.980347 26.839754,19.988413 28.903170,20.394962 
	C29.227234,22.421373 29.483913,24.049299 29.740591,25.677225 
	C29.975193,25.634918 30.209795,25.592613 30.444399,25.550308 
	C30.962671,23.647629 31.480942,21.744951 32.349644,19.908073 
	C33.412395,19.980976 34.124722,19.988077 34.958134,20.256973 
	C35.390583,20.734106 35.701939,20.949446 36.010983,21.470787 
	C36.012871,22.184774 36.017075,22.592758 36.140957,23.296457 
	C36.513653,24.394651 36.766663,25.197132 37.013386,26.446148 
	C37.013805,29.546537 37.020515,32.200394 36.584435,34.902172 
	C34.218697,35.042339 32.295753,35.134586 30.144146,35.237797 
	C29.404860,44.125938 28.709909,52.481030 28.014961,60.836117 
M11.008357,35.355141 
	C11.087961,39.465557 13.634398,39.157398 16.983528,38.577808 
	C16.413713,34.775509 18.751017,30.548866 12.818845,27.415930 
	C12.123393,30.128389 11.562403,32.316410 11.008357,35.355141 
z"/>
<path fill="#F7B030" opacity="1.000000" stroke="none" 
	d="
M28.478613,60.907585 
	C28.709909,52.481030 29.404860,44.125938 30.144146,35.237797 
	C32.295753,35.134586 34.218697,35.042339 36.919445,34.951828 
	C38.478329,34.651596 39.259407,34.349636 40.369835,34.049194 
	C41.133575,34.021339 41.567963,33.991962 42.301895,34.081543 
	C43.749130,34.087963 44.896828,33.975430 46.044525,33.862900 
	C48.073174,33.916439 50.101822,33.969978 52.562874,34.547516 
	C53.667702,42.382984 54.340134,49.694450 55.009464,57.388527 
	C54.998280,58.791382 54.990196,59.811634 54.982113,60.831882 
	C46.302162,60.880939 37.622215,60.929993 28.478613,60.907585 
M37.118618,51.557087 
	C37.400208,51.737495 37.681797,51.917904 38.312103,52.689281 
	C40.549541,52.488762 42.786980,52.288239 45.694412,51.760338 
	C48.795517,48.259624 48.021450,44.566338 46.477543,40.861328 
	C45.981579,44.231022 45.485611,47.600719 44.283360,51.167557 
	C42.191063,51.068577 40.098766,50.969601 37.896992,50.579296 
	C37.896992,50.579296 37.646954,50.394001 37.562588,49.551666 
	C37.250996,46.609589 36.939404,43.667511 36.627815,40.725433 
	C36.304222,40.758766 35.980629,40.792099 35.657036,40.825432 
	C36.080841,44.244305 36.504646,47.663177 37.118618,51.557087 
z"/>
<path fill="#E9EEF2" opacity="1.000000" stroke="none" 
	d="
M15.999134,19.840929 
	C15.486083,21.595900 14.973032,23.350870 14.019686,26.611940 
	C13.512311,23.818655 13.242435,22.332891 12.904255,20.421270 
	C13.110415,16.624468 12.726418,13.024919 13.800376,9.931540 
	C15.853631,4.017432 21.274643,4.905380 26.605400,5.423318 
	C28.108095,6.552577 29.107647,7.293196 30.189762,8.415194 
	C30.847956,12.478473 31.423584,16.160374 31.999214,19.842274 
	C31.480942,21.744951 30.962671,23.647629 30.444399,25.550308 
	C30.209795,25.592613 29.975193,25.634918 29.740591,25.677225 
	C29.483913,24.049299 29.227234,22.421373 28.978718,19.960812 
	C29.018156,14.975167 29.746616,10.578466 24.815544,7.928994 
	C23.302612,7.886208 22.090439,7.969309 20.565886,8.029984 
	C19.807322,8.330542 19.361137,8.653526 18.951542,8.978107 
	C18.988132,8.979703 18.985622,8.906494 18.630424,9.048654 
	C14.375802,12.069630 16.559996,16.248610 15.999134,19.840929 
z"/>
<path fill="#E2A02C" opacity="1.000000" stroke="none" 
	d="
M55.328415,60.897655 
	C54.990196,59.811634 54.998280,58.791382 55.368069,57.314735 
	C56.359856,55.005108 57.586422,53.126690 57.509415,51.303326 
	C57.267746,45.581051 56.535339,39.879498 55.993004,34.169922 
	C56.441990,34.124092 56.890980,34.078266 57.671608,34.528748 
	C58.375549,39.556671 58.387722,44.158085 59.247723,48.595173 
	C59.814014,51.516884 61.601715,54.201855 62.842495,56.992836 
	C62.842495,58.240105 62.842495,59.487370 62.842495,60.158978 
	C60.246178,60.450367 57.960445,60.706898 55.328415,60.897655 
z"/>
<path fill="#EBA72E" opacity="1.000000" stroke="none" 
	d="
M55.621010,34.097740 
	C56.535339,39.879498 57.267746,45.581051 57.509415,51.303326 
	C57.586422,53.126690 56.359856,55.005108 55.371166,56.932125 
	C54.340134,49.694450 53.667702,42.382984 52.992363,34.619896 
	C53.742638,34.120701 54.495831,34.073132 55.621010,34.097740 
z"/>
<path fill="#EAA62E" opacity="1.000000" stroke="none" 
	d="
M62.909691,56.542980 
	C61.601715,54.201855 59.814014,51.516884 59.247723,48.595173 
	C58.387722,44.158085 58.375549,39.556671 58.004898,34.597168 
	C62.083328,33.196438 61.622993,36.870132 61.840424,38.639137 
	C62.550510,44.416416 62.645386,50.269314 62.909691,56.542980 
z"/>
<path fill="#D13330" opacity="1.000000" stroke="none" 
	d="
M40.040482,34.047672 
	C39.259407,34.349636 38.478329,34.651596 37.362240,34.903900 
	C37.020515,32.200394 37.013805,29.546537 37.391685,26.444323 
	C38.891327,25.282639 40.006386,24.569313 41.121441,23.855989 
	C40.848862,23.503386 40.576279,23.150782 40.303696,22.798176 
	C38.876221,22.865698 37.448750,22.933220 36.021275,23.000740 
	C36.017075,22.592758 36.012871,22.184774 36.284676,21.343628 
	C37.039932,20.554916 37.519184,20.199368 37.998432,19.843819 
	C40.198410,20.035685 42.398384,20.227552 44.965786,20.451466 
	C44.965786,22.326275 44.965786,24.229391 44.515114,26.568962 
	C40.939014,26.739561 40.906956,28.831060 40.875813,31.316120 
	C40.511765,32.423309 40.276127,33.235493 40.040482,34.047672 
z"/>
<path fill="#DADCDE" opacity="1.000000" stroke="none" 
	d="
M37.998680,19.409969 
	C37.519184,20.199368 37.039932,20.554916 36.286987,21.037624 
	C35.701939,20.949446 35.390583,20.734106 35.032326,19.821379 
	C34.798050,14.794426 36.227589,9.753630 30.107197,8.033815 
	C29.107647,7.293196 28.108095,6.552577 27.045372,5.500962 
	C35.211411,4.743497 37.999645,8.232648 37.998680,19.409969 
z"/>
<path fill="#D03330" opacity="1.000000" stroke="none" 
	d="
M41.004219,31.021112 
	C40.906956,28.831060 40.939014,26.739561 44.449059,27.002277 
	C45.226242,29.023462 45.618809,31.047787 46.027946,33.467506 
	C44.896828,33.975430 43.749130,34.087963 42.297745,33.750523 
	C41.664108,32.540737 41.334164,31.780926 41.004219,31.021112 
z"/>
<path fill="#000000" opacity="1.000000" stroke="none" 
	d="
M25.116301,8.054882 
	C29.746616,10.578466 29.018156,14.975167 28.911331,19.562326 
	C26.839754,19.988413 24.843727,19.980347 22.423216,19.475988 
	C21.867649,15.004136 21.331930,10.913106 25.116301,8.054882 
z"/>
<path fill="#F7B030" opacity="1.000000" stroke="none" 
	d="
M11.004885,34.929787 
	C11.562403,32.316410 12.123393,30.128389 12.818845,27.415930 
	C18.751017,30.548866 16.413713,34.775509 16.983528,38.577808 
	C13.634398,39.157398 11.087961,39.465557 11.004885,34.929787 
z"/>
<path fill="#DADCDE" opacity="1.000000" stroke="none" 
	d="
M24.815544,7.928994 
	C21.331930,10.913106 21.867649,15.004136 21.998964,19.410105 
	C21.050217,20.081429 20.101236,20.322346 19.069000,19.818529 
	C18.985704,15.684695 18.985662,12.295594 18.985622,8.906494 
	C18.985622,8.906494 18.988132,8.979703 19.184067,9.297525 
	C19.879423,9.094369 20.378843,8.573390 20.878263,8.052411 
	C22.090439,7.969309 23.302612,7.886208 24.815544,7.928994 
z"/>
<path fill="#000000" opacity="1.000000" stroke="none" 
	d="
M30.189762,8.415194 
	C36.227589,9.753630 34.798050,14.794426 34.911232,19.559586 
	C34.124722,19.988077 33.412395,19.980976 32.349644,19.908073 
	C31.423584,16.160374 30.847956,12.478473 30.189762,8.415194 
z"/>
<path fill="#000000" opacity="1.000000" stroke="none" 
	d="
M18.630424,9.048654 
	C18.985662,12.295594 18.985704,15.684695 18.911270,19.534460 
	C18.124464,19.987959 17.412134,19.980793 16.349468,19.907278 
	C16.559996,16.248610 14.375802,12.069630 18.630424,9.048654 
z"/>
<path fill="#D03330" opacity="1.000000" stroke="none" 
	d="
M36.140957,23.296455 
	C37.448750,22.933220 38.876221,22.865698 40.303696,22.798176 
	C40.576279,23.150782 40.848862,23.503386 41.121441,23.855989 
	C40.006386,24.569313 38.891327,25.282639 37.397972,25.997787 
	C36.766663,25.197132 36.513653,24.394651 36.140957,23.296455 
z"/>
<path fill="#E9EEF2" opacity="1.000000" stroke="none" 
	d="
M44.989647,50.970417 
	C45.485611,47.600719 45.981579,44.231022 46.477543,40.861328 
	C48.021450,44.566338 48.795517,48.259624 45.349983,51.644688 
	C45.000256,51.342834 44.994953,51.156628 44.989647,50.970417 
z"/>
<path fill="#E9EEF2" opacity="1.000000" stroke="none" 
	d="
M44.636505,51.068985 
	C44.994953,51.156628 45.000256,51.342834 45.014988,51.808380 
	C42.786980,52.288239 40.549541,52.488762 38.149906,52.086899 
	C37.993961,51.279881 38.000217,51.075249 38.006470,50.870621 
	C40.098766,50.969601 42.191063,51.068577 44.636505,51.068985 
z"/>
<path fill="#E9EEF2" opacity="1.000000" stroke="none" 
	d="
M36.928452,51.082050 
	C36.504646,47.663177 36.080841,44.244305 35.657036,40.825432 
	C35.980629,40.792099 36.304222,40.758766 36.627815,40.725433 
	C36.939404,43.667511 37.250996,46.609589 37.407166,50.129868 
	C37.251747,50.708065 36.928448,51.082050 36.928452,51.082050 
z"/>
<path fill="#A92A27" opacity="1.000000" stroke="none" 
	d="
M40.875813,31.316120 
	C41.334164,31.780926 41.664108,32.540737 41.998203,33.631569 
	C41.567963,33.991962 41.133575,34.021339 40.369835,34.049194 
	C40.276127,33.235493 40.511765,32.423309 40.875813,31.316120 
z"/>
<path fill="#E9EEF2" opacity="1.000000" stroke="none" 
	d="
M37.951729,50.724960 
	C38.000217,51.075249 37.993961,51.279881 37.975548,51.791412 
	C37.681797,51.917904 37.400208,51.737495 37.023533,51.319569 
	C36.928448,51.082050 37.251747,50.708065 37.449348,50.551033 
	C37.646954,50.394001 37.896992,50.579296 37.951729,50.724960 
z"/>
<path fill="#000000" opacity="1.000000" stroke="none" 
	d="
M20.565886,8.029984 
	C20.378843,8.573390 19.879423,9.094369 19.147476,9.295930 
	C19.361137,8.653526 19.807322,8.330542 20.565886,8.029984 
z"/>
</svg>